<svg width="400" height="481" version="1.1" viewBox="0 0 400 481" xmlns="http://www.w3.org/2000/svg">
 <g>
  <path d="m160 448.89c0-32.108 0-32.108-2.25-31.546-13.827 3.4572-39.786 3.339-53.196-0.24215-16.754-4.4744-33.117-14.793-43.633-27.516-3.3774-4.0861-8.8701-12.88-12.97-20.764-13.607-26.168-26.588-43.98-37.776-51.837-12.617-8.8603-10.844-12.426 5.8251-11.717 20.8 0.88573 33.458 9.3028 48.468 32.23 15.681 23.952 34.083 35.428 59.626 37.185 9.5582 0.65739 22.009-0.82171 30.117-3.5778 5.2748-1.7929 5.2748-1.7929 6.5206-10.7 2.1125-15.103 7.2283-29.641 12.732-36.181 2.5591-3.0413 2.5591-3.0413-4.7022-4.215-65.229-10.544-106.71-44.901-117.73-97.511-5.7462-27.427-2.5823-80.613 6.3469-106.69 4.0838-11.928 8.2453-19.001 16.357-27.803 6.2314-6.7616 6.2314-6.7616 3.7563-13.846-7.2065-20.627-7.0227-42.586 0.55146-65.908 1.295-3.9875 2.8464-7.25 3.4476-7.25 2.8118 0 13.072 3.2489 17.78 5.6301 13.518 6.837 28.38 19.987 39.112 34.605 5.6787 7.7355 5.6787 7.7355 9.7552 4.7825 12.792-9.2668 43.299-13.776 85.866-12.693 35.451 0.90224 58.664 5.6489 67.602 13.823 2.1014 1.9218 2.1044 1.9197 7.7308-5.5558 16.852-22.39 36.826-37.135 54.223-40.028 4.0558-0.67453 4.0558-0.67453 6.7318 7.6306 4.2285 13.124 6.0277 25.697 5.4112 37.817-0.52644 10.35-3.1098 22.941-6.2478 30.451-1.5998 3.8288-1.5998 3.8288 3.8812 9.433 9.6626 9.8798 16.073 21.836 20.161 37.604 6.6525 25.656 8.3942 73.724 3.5327 97.5-10.823 52.933-52.287 87.42-117.85 98.022-7.3272 1.1848-7.3272 1.1848-5.3628 3.3314 4.5224 4.942 10.14 19.52 12.678 32.897 1.241 6.5423 1.512 18.434 1.512 66.36 0 58.39 0 58.39-64 58.39s-64 0-64-32.108z"/>
 </g>
</svg>
