<svg width="91.291" height="80.664" data-name="Layer 1" version="1.1" viewBox="0 0 91.291 80.664" xmlns="http://www.w3.org/2000/svg">
 <title>82</title>
 <path d="m63.695 65.264a4 4 0 0 0 5.7-0.2l20.8-22a4 4 0 0 0 0-5.5l-20.8-22a4 4 0 0 0-5.8 5.5l18.1 19.3-18.2 19.2a4 4 0 0 0 0.2 5.7z"/>
 <path d="m27.495 15.464a4 4 0 0 0-5.7 0.2l-20.7 22a4 4 0 0 0 0 5.5l20.8 22a4 4 0 0 0 5.8-5.5l-18.2-19.3 18.2-19.2a4 4 0 0 0-0.2-5.7z"/>
 <path d="m35.795 80.664h1a4 4 0 0 0 3.8-3l17.8-72.7a4.014 4.014 0 0 0-7.8-1.9l-17.8 72.7a4 4 0 0 0 3 4.9z"/>
</svg>
