<svg width="86.252" height="71.84" version="1.1" viewBox="0 0 86.252 71.84" xml:space="preserve" xmlns="http://www.w3.org/2000/svg"><g transform="translate(-6.874 -14.08)"><path d="m34.87 64.67h-26c-0.8 0-1.53-0.48-1.84-1.22s-0.15-1.6 0.41-2.17l12.2-12.5h-6.95c-0.77 0-1.48-0.44-1.81-1.14s-0.23-1.52 0.26-2.12l9.78-11.98h-4.1c-0.78 0-1.49-0.46-1.82-1.17s-0.21-1.55 0.3-2.14l13.28-15.44c0.38-0.44 0.93-0.7 1.52-0.7h0.13c0.58 0 1.14 0.25 1.52 0.7l11.46 13.33c0.72 0.84 0.63 2.1-0.21 2.82s-2.1 0.62-2.82-0.21l-10.02-11.66-8.99 10.45h3.96c0.77 0 1.48 0.44 1.81 1.14s0.23 1.52-0.26 2.12l-9.78 11.99h7.48c0.8 0 1.53 0.48 1.84 1.22s0.15 1.6-0.41 2.17l-12.2 12.5h21.25c1.1 0 2 0.9 2 2s-0.88 2.01-1.99 2.01z"/><path d="m91.13 64.67h-24.77c-1.1 0-2-0.9-2-2s0.9-2 2-2h20.02l-12.2-12.5c-0.56-0.58-0.72-1.43-0.41-2.17s1.04-1.22 1.84-1.22h7.48l-9.78-11.98c-0.49-0.6-0.59-1.42-0.26-2.12s1.03-1.14 1.81-1.14h3.95l-8.99-10.45-10 11.63c-0.72 0.84-1.98 0.93-2.82 0.21s-0.93-1.98-0.21-2.82l11.46-13.33c0.38-0.44 0.93-0.7 1.52-0.7h0.14c0.58 0 1.14 0.25 1.52 0.7l13.27 15.44c0.51 0.59 0.63 1.43 0.3 2.14s-1.04 1.17-1.82 1.17h-4.1l9.78 11.98c0.49 0.6 0.59 1.42 0.26 2.12s-1.03 1.14-1.81 1.14h-6.95l12.2 12.5c0.56 0.58 0.72 1.43 0.41 2.17s-1.04 1.23-1.84 1.23z"/><path d="m54.08 85.92h-8.16c-1.1 0-2-0.9-2-2v-12.04c0-1.1 0.9-2 2-2s2 0.9 2 2v10.04h4.16v-10.04c0-1.1 0.9-2 2-2s2 0.9 2 2v12.04c0 1.1-0.9 2-2 2z"/><path d="m73.81 73.88h-47.62c-0.8 0-1.53-0.48-1.84-1.22s-0.15-1.6 0.41-2.17l14.01-14.36h-8.32c-0.77 0-1.47-0.44-1.81-1.14-0.33-0.7-0.23-1.52 0.25-2.12l11.21-13.77h-5.03c-0.78 0-1.49-0.46-1.82-1.17s-0.21-1.55 0.3-2.14l14.87-17.24c0.38-0.44 0.93-0.69 1.51-0.69h0.14c0.58 0 1.13 0.25 1.51 0.69l14.87 17.25c0.51 0.59 0.63 1.43 0.3 2.14s-1.04 1.17-1.82 1.17h-5.03l11.2 13.76c0.49 0.6 0.59 1.42 0.25 2.12-0.33 0.7-1.04 1.14-1.81 1.14h-8.32l14.01 14.36c0.56 0.58 0.72 1.43 0.41 2.17s-1.03 1.22-1.83 1.22zm-42.87-4h38.13l-14.01-14.36c-0.56-0.58-0.72-1.43-0.41-2.17s1.04-1.22 1.84-1.22h8.86l-11.2-13.76c-0.49-0.6-0.59-1.42-0.25-2.12 0.33-0.7 1.04-1.14 1.81-1.14h4.87l-10.58-12.27-10.57 12.26h4.88c0.77 0 1.47 0.44 1.81 1.14 0.33 0.7 0.23 1.52-0.25 2.12l-11.2 13.76h8.86c0.8 0 1.53 0.48 1.84 1.22s0.15 1.6-0.41 2.17z"/></g></svg>
