<svg width="90.001" height="63.468" data-name="Layer 1" version="1.1" viewBox="0 0 90.001 63.468" xmlns="http://www.w3.org/2000/svg">
 <path d="m15.183 14.698a1.25 1.25 0 0 1 1.209-1.29c6.521-0.212 11.826 1.094 15.768 3.88a1.2518 1.2518 0 1 1-1.443 2.046c-3.487-2.464-8.279-3.615-14.244-3.422a1.248 1.248 0 0 1-1.29-1.214zm1.29 11.848c5.966-0.2 10.757 0.958 14.244 3.423a1.2502 1.2502 0 0 0 1.443-2.042c-3.942-2.786-9.246-4.089-15.768-3.88a1.2507 1.2507 0 0 0 0.081 2.5zm0 10.639c5.966-0.194 10.757 0.958 14.244 3.423a1.2502 1.2502 0 0 0 1.443-2.042c-3.942-2.785-9.246-4.089-15.768-3.88a1.2507 1.2507 0 1 0 0.081 2.5zm40.766 5.68a12.159 12.159 0 1 1 8.6-3.557 12.124 12.124 0 0 1-8.6 3.557zm-6.834-5.325a9.665 9.665 0 1 0 0-13.669 9.665 9.665 0 0 0 0 13.669zm38.138 24.469a4.991 4.991 0 0 1-7.053 0l-9.333-9.333a4.966 4.966 0 0 1-1.436-3.042 46.354 46.354 0 0 0-31.208 11.381c-0.012 0.011-0.026 0.019-0.039 0.029a1.1 1.1 0 0 1-0.117 0.086c-0.023 0.014-0.045 0.028-0.069 0.041s-0.079 0.04-0.12 0.058c-0.024 0.01-0.048 0.021-0.073 0.029a1.083 1.083 0 0 1-0.138 0.038c-0.021 0-0.042 0.012-0.064 0.015a1.154 1.154 0 0 1-0.417 0c-0.022 0-0.043-0.01-0.064-0.015a1.083 1.083 0 0 1-0.138-0.038c-0.025-8e-3 -0.049-0.019-0.073-0.029-0.041-0.018-0.081-0.037-0.12-0.058s-0.046-0.027-0.069-0.041a1.1 1.1 0 0 1-0.117-0.086c-0.013-0.01-0.027-0.018-0.039-0.029a46.1 46.1 0 0 0-36.449-11.013 1.25 1.25 0 0 1-1.407-1.24v-41.851a1.25 1.25 0 0 1 1.212-1.249l0.313-0.01c1.706-0.052 4.125-0.126 5.911-0.105v-4.266a1.25 1.25 0 0 1 1.209-1.25c14.906-0.484 24.993 4.69 30.041 15.384 5.045-10.694 15.134-15.868 30.038-15.381a1.25 1.25 0 0 1 1.21 1.25v4.391c1.789-0.057 4.5-0.063 6.224-0.01a1.25 1.25 0 0 1 1.212 1.249v37.544a4.948 4.948 0 0 1 1.839 1.165l9.334 9.334a4.993 4.993 0 0 1 0 7.052zm-15.873-16.832-3.7-3.7c-0.153 0.166-0.307 0.331-0.468 0.492s-0.325 0.315-0.491 0.468l3.7 3.7a4.96 4.96 0 0 1 0.96-0.96zm-15.431-1.043a13.433 13.433 0 1 0-9.5-3.934 13.344 13.344 0 0 0 9.5 3.934zm12.7-35.965v12.915a15.971 15.971 0 0 1 0.593 18.415l4.343 4.343v-35.708c-1.614-0.021-3.575-7e-3 -4.941 0.039zm-30 10.736v35.55a24.562 24.562 0 0 1 10.1-9.542 15.933 15.933 0 1 1 17.4-26.451v-15.959c-14.39-0.169-23.389 5.208-27.505 16.406zm-30 22.494h0.593c12.765 0 21.783 4.386 26.907 13.06v-35.55c-4.116-11.2-13.126-16.577-27.5-16.406zm11.739 7.835a48.363 48.363 0 0 1 13.706 6.66c-4.884-8.46-13.653-12.386-26.659-11.96a1.25 1.25 0 0 1-1.29-1.249v-34.637c-1.446-0.019-3.4 0.03-4.936 0.076v39.24a49.9 49.9 0 0 1 19.179 1.87zm32.009 0.653a49.122 49.122 0 0 1 15.485-2.753l-3.138-3.137a15.819 15.819 0 0 1-8.8 2.642 16.062 16.062 0 0 1-3.9-0.477 22.012 22.012 0 0 0-11.353 9.72 47.693 47.693 0 0 1 11.706-5.993zm33.088 6.836-9.334-9.334a2.487 2.487 0 0 0-3.517 3.517l9.334 9.334a2.487 2.487 0 1 0 3.517-3.517z"/>
</svg>
