<svg width="128" height="128" data-name="Layer 1" version="1.1" viewBox="0 0 128 128" xmlns="http://www.w3.org/2000/svg">
 <title>miscellaneous 111 final</title>
 <path d="m76 12.333a24.361 24.361 0 0 1 24.333 24.333 2 2 0 0 0 4 0 28.365 28.365 0 0 0-28.333-28.333 2 2 0 1 0 0 4z"/>
 <path d="m37.317 35.283a1.5102 1.5102 0 0 1 0.94922 0.75146 2.0169 2.0169 0 0 1-0.60547 2.6113l-21.572 14.106a2 2 0 0 0 2.1894 3.3477l7.2407-4.7346 12.778 18.739-14.982 9.8315-15.011-22.014a3.4485 3.4485 0 0 1-0.54883-2.6284 3.3125 3.3125 0 0 1 0.643-1.3853 13.944 13.944 0 0 1-4.0021-1.0907 7.3691 7.3691 0 0 0 0.60321 7.3574l16.117 23.638a1.9884 1.9884 0 0 0 0.74463 0.65411l8.0766 13.975-14.065 13.68a2.0007 2.0007 0 0 0-0.35937 2.395l5.1997 9.4833-18.711-4.3e-4a2 2 0 0 0 0 4l42 1e-3a2.001 2.001 0 0 0 1.834-1.2012l3.1543-7.2412a47.518 47.518 0 0 1 20.607-22.709l3.2448-1.1952a1.9842 1.9842 0 0 0 1.046-0.90314l16.909-7.3195a2.0027 2.0027 0 0 0 1.0674-1.106l2.6934-6.874a47.488 47.488 0 0 1 18.65-22.791l5.3828-3.4556a1.9968 1.9968 0 0 0 0.81738-1.0518l8.4912-25.521a1.9997 1.9997 0 1 0-3.7949-1.2627l-8.2685 24.852-4.788 3.0737a51.808 51.808 0 0 0-7.5347 5.89 35.991 35.991 0 1 0-63.322-26.879 5.3632 5.3632 0 0 0-6.1848-0.16083l-10.06 6.5775a13.796 13.796 0 0 1-0.48517 5.0965l12.734-8.3264a1.4191 1.4191 0 0 1 1.123-0.20944zm-13.87 81.535a3.6025 3.6025 0 0 1 0.16895 2.6587 5.0503 5.0503 0 0 1-0.33594 0.88672l-3.5283-6.4356 14.091-13.705a2.0009 2.0009 0 0 0 0.33689-2.4346l-8.4631-14.644 7.7954-5.1152 8.2399 21.335a1.6377 1.6377 0 0 1-0.63184 1.9429l-17.144 12.913a2.0001 2.0001 0 0 0-0.52834 2.5986zm21.874 1.1426-2.6309 6.04-17.068-4.3e-4a8.6527 8.6527 0 0 0 1.8522-3.4688 8.1244 8.1244 0 0 0 0.10547-4.019l15.894-11.973a5.6118 5.6118 0 0 0 2.0098-6.6162l-1e-3 -4.9e-4 -4.7659-12.34 6.6077-2.3307 10.982 16.14a1.994 1.994 0 0 0 0.29669 0.33722 51.742 51.742 0 0 0-13.283 18.231zm22.635-24.77-7.2208 2.66-10.97-16.122a1.9998 1.9998 0 0 0-2.3184-0.76123l-8.1715 2.8822-2.3426-6.0656 2.8829-1.8917 10.635-2.0065a1.6174 1.6174 0 0 1 1.7803 0.93848l9.2646 18.473a2.0025 2.0025 0 0 0 2.4531 0.98975 6.8027 6.8027 0 0 1 4.5331 0.62158l0.0087 0.0043c-0.17753 0.09386-0.35862 0.18224-0.53495 0.27812zm8.0448-89.19a32 32 0 1 1-32 32 32.036 32.036 0 0 1 32-32zm-35.575 37.528a35.978 35.978 0 0 0 59.669 21.194 51.823 51.823 0 0 0-9.2631 15.269l-2.3896 6.0991-15.827 6.8512a8.9119 8.9119 0 0 0-2.3992-1.6388 11.621 11.621 0 0 0-5.8222-1.1528l-8.5624-17.07a5.6012 5.6012 0 0 0-6.122-3.126l-7.1194 1.3433-13.722-20.123 10.983-7.1815a5.5531 5.5531 0 0 0 0.57535-0.46527z"/>
 <path d="m10 50a10 10 0 1 1 10-10 10.011 10.011 0 0 1-10 10zm0-16.667a6.6739 6.6739 0 0 0 0 13.333 6.6739 6.6739 0 0 0 0-13.333z"/>
</svg>
